<svg xmlns="http://www.w3.org/2000/svg" xmlns:xlink="http://www.w3.org/1999/xlink" width="850" height="550" viewBox="0 0 850 550"><defs><style>.a{fill:#f6f6f6;}.b{fill:url(#a);}.c{fill:url(#b);}.d{fill:url(#c);}.e{fill:url(#d);}.f{fill:url(#e);}.g{fill:url(#f);}.h{fill:url(#g);}.i{fill:url(#h);}.j{fill:url(#i);}.k{fill:url(#j);}.l{fill:url(#k);}.m{fill:url(#l);}.n{fill:url(#m);}.o{fill:#231f20;}.p{fill:#404041;}</style><linearGradient id="a" x1="227.02" y1="358.37" x2="227.02" y2="304.16" gradientUnits="userSpaceOnUse"><stop offset="0" stop-color="#ec1c24"/><stop offset="1" stop-color="#be1e2d"/></linearGradient><linearGradient id="b" x1="259.72" y1="358.99" x2="259.72" y2="312.68" xlink:href="#a"/><linearGradient id="c" x1="291.62" y1="358.37" x2="291.62" y2="312.68" xlink:href="#a"/><linearGradient id="d" x1="322.36" y1="358.99" x2="322.36" y2="312.06" xlink:href="#a"/><linearGradient id="e" x1="383.38" y1="358.37" x2="383.38" y2="304.16" gradientUnits="userSpaceOnUse"><stop offset="0" stop-color="#404041"/><stop offset="1" stop-color="#231f20"/></linearGradient><linearGradient id="f" x1="416.83" y1="358.37" x2="416.83" y2="312.68" xlink:href="#e"/><linearGradient id="g" x1="448.74" y1="358.99" x2="448.74" y2="312.06" xlink:href="#e"/><linearGradient id="h" x1="476.01" y1="358.37" x2="476.01" y2="304.16" xlink:href="#e"/><linearGradient id="i" x1="503.87" y1="358.37" x2="503.87" y2="312.68" xlink:href="#e"/><linearGradient id="j" x1="532.48" y1="358.99" x2="532.48" y2="312.06" xlink:href="#e"/><linearGradient id="k" x1="561.1" y1="358.37" x2="561.1" y2="312.68" xlink:href="#e"/><linearGradient id="l" x1="589.71" y1="358.99" x2="589.71" y2="312.06" xlink:href="#e"/><linearGradient id="m" x1="623.16" y1="358.37" x2="623.16" y2="312.68" xlink:href="#e"/></defs><title>auto-provision-logo</title><rect class="a" y="-0.5" width="850" height="550"/><path class="b" d="M229.21,304.16a.68.68,0,0,1,.54.23,1,1,0,0,1,.23.55l4.65,52.46a.9.9,0,0,1-.22.66.94.94,0,0,1-.79.31h-1.9a2.35,2.35,0,0,1-1.6-.56,2,2,0,0,1-.72-1.38L229,349h-3.91l-.42,7.39a2,2,0,0,1-.72,1.38,2.35,2.35,0,0,1-1.61.56h-1.89a1,1,0,0,1-.8-.31.93.93,0,0,1-.21-.66l4.65-52.46a1,1,0,0,1,.23-.55.68.68,0,0,1,.54-.23ZM225.3,344.7h3.4l-1.7-29Z"/><path class="c" d="M267.15,352.33a6.26,6.26,0,0,1-2,4.88,7.86,7.86,0,0,1-5.47,1.78,9.36,9.36,0,0,1-3.06-.47,6.71,6.71,0,0,1-2.34-1.33,5.84,5.84,0,0,1-1.52-2.09,7.16,7.16,0,0,1-.52-2.77V313.49a.89.89,0,0,1,.2-.58.71.71,0,0,1,.58-.23h2.16a2.38,2.38,0,0,1,1.63.54,1.82,1.82,0,0,1,.62,1.43v37.68A2.49,2.49,0,0,0,258,354a2.56,2.56,0,0,0,3.39,0,2.45,2.45,0,0,0,.56-1.68V314.65a1.82,1.82,0,0,1,.62-1.43,2.39,2.39,0,0,1,1.63-.54h2.17a.74.74,0,0,1,.58.23.88.88,0,0,1,.19.58Z"/><path class="d" d="M297.78,312.68a.88.88,0,0,1,.58.19.74.74,0,0,1,.23.58v1.32a2.41,2.41,0,0,1-.54,1.63,1.82,1.82,0,0,1-1.44.62h-2.4v40a1.38,1.38,0,0,1-1.39,1.4h-2.4A1.38,1.38,0,0,1,289,357V317h-2.41a1.82,1.82,0,0,1-1.43-.62,2.41,2.41,0,0,1-.54-1.63v-1.32a.74.74,0,0,1,.23-.58.88.88,0,0,1,.58-.19Z"/><path class="e" d="M314.93,318.72a6.29,6.29,0,0,1,1.95-4.88,7.84,7.84,0,0,1,5.48-1.78,9.46,9.46,0,0,1,3,.47,6.65,6.65,0,0,1,2.36,1.33,5.81,5.81,0,0,1,1.51,2.09,7,7,0,0,1,.53,2.77v33.61a6.3,6.3,0,0,1-2,4.88,7.87,7.87,0,0,1-5.48,1.78,9.45,9.45,0,0,1-3.06-.47,6.9,6.9,0,0,1-2.34-1.33,5.81,5.81,0,0,1-1.51-2.09,7,7,0,0,1-.52-2.77Zm9.68,0a2.49,2.49,0,0,0-.54-1.68,2.12,2.12,0,0,0-1.71-.64,2.09,2.09,0,0,0-1.68.64,2.4,2.4,0,0,0-.56,1.68v33.61a2.49,2.49,0,0,0,.54,1.68,2.1,2.1,0,0,0,1.7.64,2.13,2.13,0,0,0,1.69-.64,2.45,2.45,0,0,0,.56-1.68Z"/><path class="f" d="M383.38,304.16a9.46,9.46,0,0,1,3,.47,6.8,6.8,0,0,1,2.36,1.33,5.81,5.81,0,0,1,1.51,2.09,7,7,0,0,1,.53,2.77v20.56a6.28,6.28,0,0,1-2,4.88,7.82,7.82,0,0,1-5.48,1.78h-2.24v18a2.38,2.38,0,0,1-.57,1.65,2.09,2.09,0,0,1-1.68.64h-2.17a.72.72,0,0,1-.58-.23.88.88,0,0,1-.19-.58V305a.89.89,0,0,1,.19-.59.72.72,0,0,1,.58-.23Zm-2.24,4.34v25.2h2.24a2.06,2.06,0,0,0,1.7-.65,2.51,2.51,0,0,0,.55-1.67V310.82a2.58,2.58,0,0,0-.53-1.66,2.05,2.05,0,0,0-1.72-.66Z"/><path class="g" d="M416.91,312.68a9,9,0,0,1,3,.48,7.14,7.14,0,0,1,2.32,1.34,5.52,5.52,0,0,1,1.49,2.09,7,7,0,0,1,.53,2.75v14.09a5.19,5.19,0,0,1-.68,2.79,5,5,0,0,1-1.88,1.74,5.07,5.07,0,0,1,1.88,1.73,5,5,0,0,1,.68,2.73v15.14a.89.89,0,0,1-.2.58.72.72,0,0,1-.58.23h-2.17a2.11,2.11,0,0,1-1.68-.64,2.42,2.42,0,0,1-.56-1.65V342.42a2.64,2.64,0,0,0-.52-1.69,2.14,2.14,0,0,0-1.73-.64h-2.24v16a2.42,2.42,0,0,1-.56,1.65,2.13,2.13,0,0,1-1.69.64h-2.17a.74.74,0,0,1-.58-.23.88.88,0,0,1-.19-.58V313.49a.88.88,0,0,1,.19-.58.74.74,0,0,1,.58-.23ZM414.59,317v18.74h2.24a2.08,2.08,0,0,0,1.71-.66,2.54,2.54,0,0,0,.54-1.67V319.34a2.51,2.51,0,0,0-.56-1.67,2.13,2.13,0,0,0-1.69-.65Z"/><path class="h" d="M441.3,318.72a6.3,6.3,0,0,1,2-4.88,7.82,7.82,0,0,1,5.48-1.78,9.46,9.46,0,0,1,3,.47,6.74,6.74,0,0,1,2.36,1.33,5.81,5.81,0,0,1,1.51,2.09,7,7,0,0,1,.52,2.77v33.61a6.29,6.29,0,0,1-1.95,4.88,7.89,7.89,0,0,1-5.48,1.78,9.36,9.36,0,0,1-3.06-.47,6.8,6.8,0,0,1-2.34-1.33,5.81,5.81,0,0,1-1.51-2.09,7,7,0,0,1-.53-2.77Zm9.68,0a2.49,2.49,0,0,0-.54-1.68,2.1,2.1,0,0,0-1.7-.64,2.13,2.13,0,0,0-1.69.64,2.45,2.45,0,0,0-.56,1.68v33.61A2.49,2.49,0,0,0,447,354a2.12,2.12,0,0,0,1.71.64,2.09,2.09,0,0,0,1.68-.64,2.4,2.4,0,0,0,.56-1.68Z"/><path class="i" d="M473.83,358.37a.69.69,0,0,1-.55-.23,1.18,1.18,0,0,1-.23-.55l-4.64-52.46a.85.85,0,0,1,.21-.66,1,1,0,0,1,.79-.31h1.9a2.37,2.37,0,0,1,1.61.56,2.07,2.07,0,0,1,.71,1.38L476,346.79l2.4-40.69a2.07,2.07,0,0,1,.71-1.38,2.37,2.37,0,0,1,1.61-.56h1.9a1,1,0,0,1,.79.31.85.85,0,0,1,.21.66L479,357.59a1.1,1.1,0,0,1-.24.55.68.68,0,0,1-.54.23Z"/><path class="j" d="M501.28,314.65a1.79,1.79,0,0,1,.62-1.43,2.37,2.37,0,0,1,1.62-.54h2.17a.72.72,0,0,1,.58.23.89.89,0,0,1,.2.58V357a1.4,1.4,0,0,1-1.4,1.4h-2.4a1.37,1.37,0,0,1-1-.41,1.34,1.34,0,0,1-.4-1Z"/><path class="k" d="M537,328.67a2.12,2.12,0,0,1-1.69-.64,2.4,2.4,0,0,1-.56-1.64v-7.67a2.45,2.45,0,0,0-.56-1.68,2.13,2.13,0,0,0-1.69-.64,2.1,2.1,0,0,0-1.7.64,2.49,2.49,0,0,0-.54,1.68,31.51,31.51,0,0,0,.4,5.42,20.89,20.89,0,0,0,1.11,4,19.45,19.45,0,0,0,1.57,3.13c.58.93,1.16,1.86,1.76,2.79s1.18,1.92,1.76,3a22.35,22.35,0,0,1,1.57,3.68,29.59,29.59,0,0,1,1.1,4.92,47.47,47.47,0,0,1,.41,6.68,7.16,7.16,0,0,1-.52,2.77,5.94,5.94,0,0,1-1.51,2.09,6.85,6.85,0,0,1-2.37,1.33,9.41,9.41,0,0,1-3,.47,7.86,7.86,0,0,1-5.47-1.78,6.26,6.26,0,0,1-2-4.88V342.8a.88.88,0,0,1,.19-.58.74.74,0,0,1,.58-.23H528a2.13,2.13,0,0,1,1.69.64,2.42,2.42,0,0,1,.56,1.64v8.06a2.4,2.4,0,0,0,.56,1.68,2.56,2.56,0,0,0,3.39,0,2.49,2.49,0,0,0,.54-1.68,42.41,42.41,0,0,0-.41-6.35,24.5,24.5,0,0,0-1.1-4.55,18.47,18.47,0,0,0-1.57-3.33c-.58-.94-1.17-1.85-1.76-2.71s-1.18-1.76-1.76-2.69a17.69,17.69,0,0,1-1.57-3.29,24.23,24.23,0,0,1-1.1-4.46,40.52,40.52,0,0,1-.41-6.23,7,7,0,0,1,.52-2.77,5.81,5.81,0,0,1,1.51-2.09,6.69,6.69,0,0,1,2.35-1.33,9.34,9.34,0,0,1,3.05-.47,7.82,7.82,0,0,1,5.48,1.78,6.26,6.26,0,0,1,2,4.88v9.14a.89.89,0,0,1-.2.58.71.71,0,0,1-.58.23Z"/><path class="l" d="M558.5,314.65a1.82,1.82,0,0,1,.62-1.43,2.39,2.39,0,0,1,1.63-.54h2.17a.74.74,0,0,1,.58.23.94.94,0,0,1,.19.58V357a1.4,1.4,0,0,1-1.39,1.4h-2.4a1.4,1.4,0,0,1-1.4-1.4Z"/><path class="m" d="M582.27,318.72a6.3,6.3,0,0,1,2-4.88,7.82,7.82,0,0,1,5.48-1.78,9.46,9.46,0,0,1,3,.47,6.74,6.74,0,0,1,2.36,1.33,5.81,5.81,0,0,1,1.51,2.09,7,7,0,0,1,.52,2.77v33.61a6.29,6.29,0,0,1-1.95,4.88,7.89,7.89,0,0,1-5.48,1.78,9.36,9.36,0,0,1-3.06-.47,6.71,6.71,0,0,1-2.34-1.33,5.81,5.81,0,0,1-1.51-2.09,7,7,0,0,1-.53-2.77Zm9.68,0a2.49,2.49,0,0,0-.54-1.68,2.1,2.1,0,0,0-1.7-.64A2.13,2.13,0,0,0,588,317a2.45,2.45,0,0,0-.56,1.68v33.61A2.49,2.49,0,0,0,588,354a2.12,2.12,0,0,0,1.71.64,2.09,2.09,0,0,0,1.68-.64,2.4,2.4,0,0,0,.56-1.68Z"/><path class="n" d="M629.82,312.68a.72.72,0,0,1,.58.23.88.88,0,0,1,.19.58v44.07a.88.88,0,0,1-.19.58.72.72,0,0,1-.58.23h-2.17a2.22,2.22,0,0,1-1.55-.49,2.07,2.07,0,0,1-.66-1.29,10.83,10.83,0,0,0-.29-1.86c-.19-.93-.43-2.05-.73-3.35l-1-4.3c-.36-1.56-.72-3.15-1.08-4.78s-.71-3.23-1-4.8-.59-3-.79-4.3l.38,22.88a2.19,2.19,0,0,1-.54,1.65,2.15,2.15,0,0,1-1.7.64H616.5a.72.72,0,0,1-.58-.23.88.88,0,0,1-.19-.58V313.49a.88.88,0,0,1,.19-.58.72.72,0,0,1,.58-.23h2.17a2.31,2.31,0,0,1,1.57.52,2,2,0,0,1,.67,1.38c.06.41.17,1.15.35,2.22s.42,2.33.7,3.78.59,3,.93,4.72.68,3.4,1,5.09.68,3.3,1,4.82.61,2.84.87,4l-.38-24.51a1.79,1.79,0,0,1,.62-1.43,2.37,2.37,0,0,1,1.62-.54Z"/><path class="o" d="M304.72,230c9.6,7.94,17.4,16.46,23.51,26.88-1.55.12-2.12-1-2.79-1.64a137.3,137.3,0,0,0-51.62-32.5c-10.68-3.82-21.84-5.81-32.91-8.09-14.59-3-29.17-6-43.57-9.78a21.8,21.8,0,0,1-7-3.12c-3.11-2.18-3.07-4.39.05-6.62a18.19,18.19,0,0,1,3.19-1.86,80,80,0,0,1,27.28-6.66c7-.39,12.11,2.68,13,10.06a14.35,14.35,0,0,0,7.72,11.23c2.55,1.38,4.79,1.38,6.9-1,7.19-8.13,14.84-15.84,22.65-23.37,9.35-9,18.84-17.94,30.27-24.41,14.72-8.33,30.69-12.87,47.28-15.61,34.8-5.77,69.89-4.93,104.93-4.35a304,304,0,0,1,58.34,6.32c21.72,4.61,41.11,13.67,57.48,28.91,7,6.49,13.67,13.21,20.43,19.89,4,3.94,7.45,8.34,11.53,12.17,3.06,2.87,5,3.15,8.53.71,3.8-2.64,5.79-6.46,6.7-10.88,1.43-6.94,4.46-9.78,11.54-9.61a69.23,69.23,0,0,1,30.34,7.68c1.68.86,3.58,1.89,3.57,4.1s-2,3.42-3.82,4.25c-7.51,3.42-15.63,4.68-23.57,6.58-16.22,3.88-32.74,6.42-48.88,10.69a134.9,134.9,0,0,0-56.09,30.61c-2.57,2.29-5,4.7-7.78,6.89,1.5-3.61,4.09-6.54,6.29-9.71a64.23,64.23,0,0,1,7.82-9.21c2.87-2.8,5.86-5.47,8.77-8.16-.39-1.22-1.32-.84-2-.87-13.42-.49-26.85-.84-40.27-1.46-21.93-1-43.87-1.16-65.82-1.57-18.94-.34-37.86.09-56.77.44-24.4.45-48.78,1.69-73.16,2.6A15.56,15.56,0,0,0,304.72,230Zm230.74-8.85a80.1,80.1,0,0,0,14.35-1.48c9.09-1.87,16.74-6.79,24.33-11.79,3.85-2.53,4.44-4.36,3.16-8.8a17.49,17.49,0,0,0-1.38-3.42c-9.76-18-24.51-30-44-36a128.19,128.19,0,0,0-27-5c-8-.7-9-.12-12.66,7.13-3.13,6.22-4.32,12.93-5.2,19.72a52.25,52.25,0,0,0,6.76,34.21,6,6,0,0,0,5.17,3.13Zm-54.9-61a126,126,0,0,0-34.21,55.19c-.56,1.8,0,2.46,1.84,2.41,4.14-.1,8.29-.22,12.43-.13,2.46.06,3.23-.93,3.43-3.33C465.63,195,470.11,176.72,480.56,160.09Z"/><path class="o" d="M576.13,282.7c16.59-8.63,33.46-16.1,50.38-24.29-1.69-.79-2.87-.14-3.93.19-19.84,6.34-39.54,13.1-58.6,21.56-7.22,3.21-13.22,8.31-19.51,13.06,3.25-5,6.63-9.76,11.59-13.22,8-5.53,16.63-9.75,25.36-13.78,19.94-9.2,39.88-18.35,57.86-31.18,1.55-1.1,3.38-3,5.38-1.78s.8,3.73.65,5.65a35.82,35.82,0,0,1-11.92,24.78,10.89,10.89,0,0,1-3.63,2.36c-16.86,6-33.69,12.17-51,17A2.32,2.32,0,0,1,576.13,282.7Z"/><path class="o" d="M275.25,283.14c-4.59.22-8.62-1.09-12.62-2.43-13.17-4.43-26.36-8.77-39.45-13.42-9.25-3.28-14-10.78-16.85-19.63a40.47,40.47,0,0,1-2-11.56c-.08-3.21,1.4-4.25,4.11-2.61,5.08,3.08,10,6.4,15,9.64C238,252.6,254,259,269.59,266.44c6.37,3.05,12.59,6.38,18.83,9.68,7.78,4.11,13.47,10.43,18.77,18.52-3.7-2-5.87-4.4-8.38-6.34-10.31-7.94-22.16-13.05-33.88-18.38a173.25,173.25,0,0,0-26.37-10c-1.73-.46-3.5-.77-5.26-1.06-.63-.1-1.46-.18-1.77.57s.39,1.21.88,1.63a46.66,46.66,0,0,0,9.75,5.92c9.17,4.46,18.41,8.76,27.6,13.17C271.64,281.07,273.42,282.15,275.25,283.14Z"/><path class="p" d="M298,402.41v0a7.71,7.71,0,0,1,7.74-7.92,8,8,0,0,1,6,2.43l-1.18,1.27a6.63,6.63,0,0,0-4.81-2.1,6,6,0,0,0-5.92,6.27v.05a6,6,0,0,0,5.92,6.31,6.62,6.62,0,0,0,4.94-2.2l1.14,1.11a8,8,0,0,1-6.12,2.69A7.63,7.63,0,0,1,298,402.41Z"/><path class="p" d="M318.79,403.61v-8.89h1.73v8.78c0,3.3,1.77,5.16,4.68,5.16s4.61-1.7,4.61-5.05v-8.89h1.73v8.76c0,4.46-2.56,6.78-6.39,6.78S318.79,407.94,318.79,403.61Z"/><path class="p" d="M338.85,407.79l1.07-1.27a7.31,7.31,0,0,0,5.25,2.16c2.05,0,3.41-1.09,3.41-2.6v0c0-1.42-.77-2.23-4-2.91-3.52-.76-5.14-1.9-5.14-4.41v-.05c0-2.4,2.12-4.17,5-4.17a8,8,0,0,1,5.38,1.88l-1,1.33a6.71,6.71,0,0,0-4.42-1.66c-2,0-3.25,1.09-3.25,2.47v0c0,1.45.78,2.25,4.15,3s5,2,5,4.32v.05c0,2.62-2.18,4.33-5.22,4.33A8.93,8.93,0,0,1,338.85,407.79Z"/><path class="p" d="M362.14,396.31H357v-1.59h12v1.59h-5.14V410h-1.75Z"/><path class="p" d="M374.78,402.41v0a7.76,7.76,0,0,1,7.82-7.92,7.68,7.68,0,0,1,7.78,7.87v.05a7.8,7.8,0,1,1-15.6,0Zm13.81,0v0a6.08,6.08,0,0,0-6-6.32,6,6,0,0,0-6,6.27v.05a6.08,6.08,0,0,0,6,6.31A6,6,0,0,0,388.59,402.41Z"/><path class="p" d="M398.41,394.72h1.75l5.58,8.35,5.57-8.35h1.75V410h-1.73v-12.4l-5.57,8.2h-.09l-5.57-8.17V410h-1.69Z"/><path class="p" d="M434.72,402.41v0a7.68,7.68,0,0,1,7.67-7.92,8.08,8.08,0,0,1,5.71,2L447,397.8a6.49,6.49,0,0,0-4.65-1.75,6,6,0,0,0-5.82,6.27v.05c0,3.65,2.34,6.36,6.06,6.36A7.2,7.2,0,0,0,447,407.2v-3.81h-4.65v-1.55h6.31v6.1a9.25,9.25,0,0,1-6.14,2.34A7.5,7.5,0,0,1,434.72,402.41Z"/><path class="p" d="M462.22,394.61h1.61l7,15.41H469l-1.79-4h-8.33L457,410h-1.77Zm4.26,9.79L463,396.62l-3.49,7.78Z"/><path class="p" d="M478,394.72h6.58a6,6,0,0,1,4.35,1.53,4.18,4.18,0,0,1,1.18,3v.05c0,2.53-1.74,4-4.15,4.46l4.7,6.25h-2.12l-4.44-5.95h-4.37V410H478Zm6.43,7.8c2.3,0,3.94-1.18,3.94-3.15v0c0-1.88-1.45-3-3.92-3h-4.72v6.21Z"/><path class="p" d="M504.31,394.61h1.61l7,15.41H511l-1.79-4h-8.33l-1.82,4h-1.77Zm4.26,9.79-3.48-7.78-3.5,7.78Z"/><path class="p" d="M518.56,402.41v0a7.68,7.68,0,0,1,7.67-7.92,8.08,8.08,0,0,1,5.71,2l-1.11,1.31a6.53,6.53,0,0,0-4.66-1.75,6,6,0,0,0-5.82,6.27v.05c0,3.65,2.34,6.36,6.06,6.36a7.23,7.23,0,0,0,4.42-1.53v-3.81h-4.66v-1.55h6.32v6.1a9.28,9.28,0,0,1-6.15,2.34A7.5,7.5,0,0,1,518.56,402.41Z"/><path class="p" d="M540.88,394.72h11.06v1.57h-9.33v5.22H551v1.58h-8.35v5.35h9.44V410H540.88Z"/><polygon class="o" points="315.54 376.58 342.9 376.28 370.27 376.1 425 375.96 479.73 376.1 507.1 376.27 534.46 376.58 507.1 376.89 479.73 377.06 425 377.2 370.27 377.06 342.9 376.88 315.54 376.58"/></svg>